<svg id="UI_System_Icons_Update" data-name="UI/System/Icons/Update" xmlns="http://www.w3.org/2000/svg" width="10" height="7.578" viewBox="0 0 10 7.578">
  <path id="Path" d="M8.9,1.179,6.946.074a.64.64,0,0,0-.662.039.251.251,0,0,0,.058.444l.97.553H2.667C1.195,1.11,0,1.91,0,2.9v.566c0,.174.21.315.47.315s.47-.141.47-.315V2.892c0-.64.774-1.158,1.728-1.159H7.314l-.97.553a.251.251,0,0,0-.058.444.64.64,0,0,0,.662.039L8.9,1.663a.251.251,0,0,0,.058-.444A.441.441,0,0,0,8.9,1.181Z" transform="translate(0.927 0)" fill="#d3d3d3"/>
  <path id="Path-2" data-name="Path" d="M8.589,0c-.259,0-.47.141-.47.315V.886c0,.64-.774,1.158-1.728,1.159H1.744l.97-.553c.227-.084.31-.276.184-.428A.605.605,0,0,0,2.26.941a.47.47,0,0,0-.136.076L.168,2.122a.251.251,0,0,0-.058.444A.442.442,0,0,0,.168,2.6L2.123,3.71a.64.64,0,0,0,.662-.039.251.251,0,0,0-.058-.444l-.97-.553H6.391c1.472,0,2.665-.8,2.667-1.789V.315C9.058.141,8.848,0,8.589,0Z" transform="translate(0.001 3.78)" fill="#d3d3d3"/>
</svg>
